<svg width="15" height="15" viewBox="0 0 15 15" fill="none" xmlns="http://www.w3.org/2000/svg">
<path d="M15.0003 14.6179C14.8991 14.8999 14.6972 15.0014 14.4011 15C12.7807 14.9926 11.1603 14.9965 9.53987 14.9964C9.1356 14.9964 8.96484 14.8239 8.96484 14.4158C8.96484 11.5708 8.96484 8.72588 8.96484 5.88093C8.96484 5.47306 9.13433 5.30338 9.54124 5.30338C11.1617 5.30338 12.7821 5.30751 14.4025 5.29959C14.7 5.2981 14.9005 5.39998 15.0002 5.68313C15.0003 8.6614 15.0003 11.6397 15.0003 14.6179ZM10.4277 10.1305C10.0519 9.90151 10.0357 9.54872 10.374 9.27807C10.3978 9.25903 10.4115 9.21291 10.4106 9.17986C10.4026 8.86654 10.5239 8.61023 10.75 8.40062C10.9779 8.1894 11.2536 8.07146 11.5522 7.99975C11.7282 7.95742 11.8991 7.95948 12.0675 8.03498C12.0978 8.04852 12.143 8.0492 12.1743 8.03739C12.699 7.83787 13.3071 8.18252 13.3889 8.73988C13.4256 8.9901 13.4263 9.2456 13.451 9.49789C13.4559 9.54872 13.4832 9.60849 13.5199 9.64314C13.7173 9.82946 13.7306 10.0525 13.5554 10.2661C13.5251 10.3031 13.5021 10.3596 13.5033 10.4064C13.515 10.8992 13.5292 11.392 13.5514 11.8844C13.5546 11.9554 13.5898 12.0339 13.6325 12.0927C13.8271 12.3609 13.9451 12.6536 13.9502 12.9875C13.9522 13.118 13.9506 13.2485 13.9506 13.3846C14.2047 13.3846 14.4394 13.3846 14.6699 13.3846C14.6699 11.2176 14.6699 9.06341 14.6699 6.91281C12.8688 6.91281 11.0801 6.91281 9.29177 6.91281C9.29177 9.07902 9.29177 11.2332 9.29177 13.3845C9.53447 13.3845 9.76547 13.3845 9.99199 13.3845C9.99922 13.3627 10.0046 13.3536 10.0048 13.3444C10.0066 13.2909 10.01 13.237 10.0078 13.1836C9.98878 12.7302 10.1093 12.3262 10.4204 11.9853C10.4524 11.9504 10.468 11.8898 10.4703 11.8401C10.4868 11.4891 10.4991 11.138 10.5091 10.7867C10.5102 10.7464 10.5011 10.695 10.4764 10.6666C10.3319 10.5007 10.3328 10.3239 10.4277 10.1305ZM9.28007 13.7158C9.28007 13.9636 9.27961 14.1972 9.28018 14.4308C9.28064 14.6535 9.30795 14.6801 9.53654 14.6801C11.1669 14.6802 12.7974 14.6802 14.4278 14.6801C14.4669 14.6801 14.5133 14.6918 14.5433 14.675C14.5935 14.6464 14.6699 14.6007 14.6715 14.5598C14.6827 14.2797 14.6773 13.9991 14.6773 13.716C12.8732 13.7158 11.0879 13.7158 9.28007 13.7158ZM14.682 6.5833C14.682 6.33767 14.6822 6.10431 14.6819 5.87106C14.6816 5.64608 14.6549 5.61934 14.4285 5.61934C12.798 5.61923 11.1674 5.61923 9.53688 5.61946C9.49293 5.61946 9.4421 5.60787 9.40698 5.626C9.36016 5.65009 9.29258 5.69702 9.2912 5.73602C9.28133 6.01642 9.28592 6.29728 9.28592 6.58342C11.0874 6.5833 12.8727 6.5833 14.682 6.5833ZM12.807 13.3914C12.807 13.2765 12.8064 13.175 12.8072 13.0736C12.808 12.9684 12.8461 12.8866 12.9642 12.886C13.0818 12.8854 13.1221 12.9654 13.1228 13.0716C13.1235 13.177 13.1229 13.2825 13.1229 13.3851C13.3072 13.3851 13.47 13.3851 13.6308 13.3851C13.7398 12.5496 13.2423 11.8438 12.5382 11.8306C12.4709 12.1127 12.3058 12.3076 12.001 12.3175C11.6662 12.3283 11.4929 12.1172 11.4155 11.8177C10.65 11.9243 10.1674 12.632 10.3375 13.3884C10.4998 13.3884 10.6632 13.3884 10.8399 13.3884C10.8399 13.2784 10.8405 13.1768 10.8398 13.0754C10.839 12.9694 10.8749 12.8886 10.9935 12.8861C11.1131 12.8836 11.1518 12.9656 11.1542 13.0699C11.1567 13.1752 11.1548 13.2806 11.1548 13.3914C11.7122 13.3914 12.248 13.3914 12.807 13.3914ZM12.2832 9.33945C11.943 9.78139 11.4808 10.0336 10.9281 10.1457C10.8375 10.164 10.7577 10.2604 10.6877 10.3346C10.6746 10.3485 10.7298 10.47 10.7572 10.4714C10.899 10.4786 10.9409 10.5744 10.9914 10.6795C11.2058 11.1261 11.6883 11.3759 12.178 11.2997C12.6973 11.219 13.0757 10.8576 13.1471 10.3614C13.1657 10.2322 13.1682 10.1101 13.3149 10.0496C13.34 10.0393 13.3455 9.96748 13.3464 9.92377C13.3467 9.91482 13.2855 9.90335 13.2521 9.89543C13.1737 9.87673 13.0827 9.87891 13.0187 9.83818C12.7724 9.68181 12.5348 9.51178 12.2832 9.33945ZM12.1611 8.82443C12.1619 8.43274 11.9803 8.25296 11.7058 8.29186C11.4302 8.33086 11.1782 8.43458 10.9693 8.62343C10.7846 8.79059 10.6904 8.99549 10.7324 9.251C10.7623 9.43296 10.7241 9.50111 10.5482 9.55457C10.4457 9.58578 10.4333 9.64991 10.4593 9.73435C10.5014 9.87145 10.6203 9.86641 10.725 9.85562C11.2039 9.80629 11.6156 9.61228 11.9437 9.25662C12.0797 9.10942 12.1598 8.9332 12.1611 8.82443ZM12.3761 8.30069C12.4827 8.51535 12.4999 8.73815 12.4493 8.96807C12.4439 8.9924 12.4527 9.03267 12.4703 9.04712C12.6775 9.21727 12.8876 9.38374 13.0969 9.55124C13.1097 9.54 13.1223 9.52876 13.135 9.51763C13.1223 9.31444 13.1098 9.11126 13.0969 8.90807C13.0948 8.87411 13.0944 8.83969 13.0885 8.8063C13.028 8.46602 12.7294 8.24941 12.3761 8.30069ZM13.2071 11.6966C13.2071 11.4858 13.2071 11.2687 13.2071 11.0598C13.0144 11.2163 12.8319 11.3647 12.665 11.5002C12.8375 11.5627 13.0279 11.6316 13.2071 11.6966ZM11.3523 11.4917C11.1777 11.3466 10.998 11.1975 10.8076 11.0395C10.8076 11.2502 10.8076 11.4595 10.8076 11.6638C10.991 11.6058 11.178 11.5467 11.3523 11.4917ZM11.7449 11.6194C11.7406 11.7436 11.7076 11.8898 11.8513 11.9613C11.9215 11.9962 12.0366 11.9968 12.1074 11.963C12.2433 11.8979 12.2311 11.7608 12.2095 11.6194C12.0551 11.6194 11.9065 11.6194 11.7449 11.6194Z" fill="#DAA520"/>
<path d="M9.08131 0C9.30955 0.078934 9.55443 0.127579 9.76305 0.242309C10.5877 0.695491 10.9225 1.61505 10.6179 2.53174C10.4363 3.07831 10.1175 3.54377 9.75065 3.97894C9.17471 4.66204 8.50628 5.24533 7.78828 5.77343C7.59951 5.91225 7.42268 5.92625 7.24654 5.79683C6.33334 5.12601 5.48773 4.38371 4.84202 3.44097C4.53873 2.99823 4.29798 2.52405 4.27354 1.97289C4.22993 0.992756 4.88436 0.190337 5.85172 0.0260436C5.87422 0.0222576 5.89522 0.00894891 5.9169 0C6.05369 0 6.19036 0 6.32714 0C6.63238 0.0629866 6.93223 0.141576 7.1887 0.330077C7.29703 0.4097 7.39858 0.4985 7.46709 0.553915C7.73148 0.400865 7.97085 0.246439 8.2248 0.121613C8.36066 0.0548408 8.52166 0.0390081 8.67118 0.00011473C8.80785 0 8.94452 0 9.08131 0ZM6.25565 0.319178C5.20165 0.316195 4.48101 1.1193 4.59347 2.05859C4.65084 2.53759 4.87633 2.9466 5.14806 3.33186C5.75992 4.19934 6.54517 4.89024 7.39078 5.51907C7.47156 5.57907 7.53801 5.5738 7.61477 5.51666C8.3174 4.99361 8.97688 4.42306 9.53664 3.74581C9.88939 3.31901 10.2022 2.86641 10.3537 2.32351C10.5579 1.5913 10.2491 0.849229 9.59826 0.501139C8.94223 0.150296 8.15572 0.30541 7.66469 0.882386C7.53284 1.03739 7.46606 1.03589 7.3287 0.875961C7.01898 0.515366 6.6271 0.328242 6.25565 0.319178Z" fill="#DAA520"/>
<path d="M6.03339 10.1504C6.03339 11.5758 6.03351 13.001 6.03339 14.4264C6.03339 14.8243 5.86092 14.9964 5.46216 14.9964C3.83153 14.9965 2.20079 14.9965 0.570163 14.9964C0.175531 14.9964 0.000190127 14.8203 0.000190127 14.424C-3.93767e-05 11.5732 -3.93767e-05 8.72255 7.53754e-05 5.87186C7.53754e-05 5.47742 0.175416 5.30337 0.572229 5.30337C2.20779 5.30337 3.84335 5.30326 5.47891 5.30337C5.85587 5.30337 6.03328 5.4812 6.03339 5.8597C6.03351 7.28992 6.03339 8.72014 6.03339 10.1504ZM5.70968 13.3897C5.70968 11.2204 5.70968 9.06937 5.70968 6.90959C3.91209 6.90959 2.12299 6.90959 0.324938 6.90959C0.324938 9.07075 0.324938 11.2256 0.324938 13.3878C0.533672 13.3878 0.735406 13.3878 0.95814 13.3878C0.95814 13.1453 0.949534 12.9116 0.959747 12.6787C0.989123 12.0152 1.4152 11.4532 2.0445 11.2401C2.15282 11.2033 2.26539 11.1791 2.39587 11.1437C2.34308 11.1058 2.30533 11.0783 2.26712 11.0513C2.07996 10.9192 1.93801 10.7504 1.83473 10.5447C1.80604 10.4875 1.74786 10.4322 1.68957 10.4049C1.43861 10.2871 1.33407 10.0134 1.44687 9.76819C1.49025 9.67388 1.51606 9.56983 1.53844 9.46783C1.56036 9.36813 1.56403 9.26464 1.58216 9.16391C1.69932 8.51064 2.0375 8.12056 2.60598 8.01122C2.79555 7.97474 2.99533 7.96487 3.18823 7.97726C3.8142 8.0173 4.1969 8.31491 4.38131 8.88546C4.41114 8.97793 4.43295 9.07362 4.45142 9.16907C4.49824 9.41161 4.54047 9.65507 4.58557 9.89784C4.6208 10.087 4.5189 10.2814 4.33805 10.388C4.28847 10.4172 4.23959 10.4652 4.21492 10.5163C4.10625 10.7422 3.94996 10.9242 3.7442 11.0656C3.71162 11.0879 3.68063 11.1128 3.63026 11.1506C3.70186 11.1662 3.74432 11.1758 3.78689 11.1848C4.29731 11.2924 4.66922 11.5833 4.91089 12.0414C5.0463 12.2979 5.08623 12.5767 5.08348 12.8636C5.08187 13.0373 5.08313 13.211 5.08313 13.3896C5.30391 13.3898 5.50186 13.3897 5.70968 13.3897ZM1.23699 13.3841C2.44062 13.3841 3.60168 13.3841 4.7616 13.3841C4.8612 12.2925 4.34883 11.4279 3.65447 11.5007C3.5847 11.9279 3.39019 12.1576 3.06132 12.1551C2.9235 12.1541 2.77168 12.1084 2.65177 12.039C2.45187 11.9232 2.3891 11.7134 2.386 11.4912C1.93548 11.5049 1.44205 11.896 1.32971 12.3835C1.25569 12.7047 1.26533 13.0453 1.23699 13.3841ZM5.71633 13.7203C3.9052 13.7203 2.11622 13.7203 0.316102 13.7203C0.316102 13.9631 0.315758 14.1965 0.316217 14.43C0.316561 14.6521 0.34502 14.68 0.571885 14.68C2.20228 14.6801 3.83279 14.6801 5.46319 14.68C5.49739 14.68 5.54145 14.6928 5.56371 14.6764C5.61983 14.6353 5.70658 14.5829 5.70945 14.5311C5.72425 14.2644 5.71633 13.9964 5.71633 13.7203ZM0.316906 6.57974C2.12655 6.57974 3.91564 6.57974 5.71805 6.57974C5.71805 6.3325 5.71863 6.0942 5.71782 5.85591C5.71714 5.64917 5.68719 5.61934 5.47903 5.61934C3.83865 5.61911 2.19838 5.61922 0.558 5.61922C0.533558 5.61922 0.50923 5.61945 0.484788 5.61968C0.378872 5.6206 0.318283 5.67257 0.317479 5.77973C0.315643 6.04269 0.316906 6.30565 0.316906 6.57974ZM2.99292 9.18732C2.56765 9.17688 2.25805 9.32832 2.05689 9.67182C2.00606 9.75856 1.95579 9.81122 1.84896 9.82774C1.79824 9.83565 1.71906 9.92721 1.72537 9.97C1.73386 10.0271 1.81132 10.1144 1.8625 10.1169C1.99791 10.1231 2.04771 10.1866 2.08248 10.3044C2.20331 10.7133 2.56031 10.9662 3.01082 10.9721C3.45262 10.9778 3.82396 10.7239 3.95145 10.3202C3.98495 10.2141 4.02638 10.1407 4.14848 10.1155C4.19828 10.1052 4.27023 10.0254 4.26736 9.98136C4.2638 9.92618 4.1992 9.86938 4.15066 9.82453C4.11394 9.79057 4.04038 9.78598 4.01869 9.748C3.93928 9.60872 3.81088 9.5517 3.67203 9.49709C3.58275 9.46198 3.4859 9.4193 3.4221 9.35195C3.29197 9.21451 3.14348 9.16219 2.99292 9.18732ZM4.13815 9.40358C4.11738 9.00558 4.04245 8.63352 3.67845 8.44008C3.23379 8.20385 2.76548 8.20856 2.32277 8.45855C2.05574 8.60931 1.85688 9.05251 1.88625 9.30319C2.06446 9.19202 2.24359 9.04046 2.45049 8.9605C2.77329 8.83567 3.1203 8.80045 3.44264 8.9691C3.68396 9.09553 3.90692 9.25753 4.13815 9.40358ZM3.33006 11.273C3.11582 11.273 2.91397 11.273 2.7026 11.273C2.70765 11.4619 2.64752 11.6685 2.85029 11.802C2.96286 11.8761 3.08484 11.8738 3.19351 11.796C3.38778 11.6569 3.3272 11.4523 3.33006 11.273Z" fill="#DAA520"/>
<path d="M11.9703 14.3522C11.8974 14.3522 11.8155 14.3729 11.7541 14.3463C11.6949 14.3206 11.6258 14.2495 11.6194 14.1919C11.6144 14.1477 11.6957 14.0567 11.7465 14.0504C11.8996 14.0313 12.0579 14.0313 12.211 14.0505C12.2612 14.0568 12.3409 14.1486 12.3359 14.1933C12.3294 14.2506 12.2601 14.3229 12.2011 14.3461C12.1338 14.3726 12.048 14.3522 11.9703 14.3522Z" fill="#DAA520"/>
<path d="M11.5499 6.21249C11.3504 6.21261 11.1511 6.211 10.9516 6.21318C10.8423 6.21444 10.7667 6.17131 10.7656 6.05749C10.7646 5.95057 10.8394 5.90295 10.9397 5.90261C11.3482 5.90112 11.7567 5.90066 12.1652 5.90318C12.264 5.90376 12.3374 5.94873 12.3354 6.0599C12.3336 6.16913 12.265 6.21238 12.1625 6.21249C11.9583 6.21249 11.754 6.21238 11.5499 6.21249Z" fill="#DAA520"/>
<path d="M12.9502 6.22868C12.8812 6.20997 12.8063 6.20814 12.7568 6.17177C12.6796 6.11498 12.6802 6.02882 12.7428 5.9547C12.8089 5.87668 13.0824 5.87554 13.1503 5.95298C13.2142 6.02583 13.2168 6.11188 13.14 6.16993C13.091 6.20688 13.0163 6.20975 12.9502 6.22868Z" fill="#DAA520"/>
<path d="M2.99769 14.3531C2.93446 14.3533 2.87112 14.3562 2.80812 14.3526C2.71092 14.3471 2.63897 14.2888 2.6571 14.197C2.66869 14.1383 2.74271 14.0567 2.79802 14.0484C2.94066 14.0272 3.09064 14.0272 3.23339 14.048C3.29008 14.0562 3.36673 14.1349 3.37912 14.1932C3.39806 14.2829 3.32829 14.3459 3.23086 14.3519C3.15341 14.3568 3.07537 14.353 2.99769 14.3531Z" fill="#DAA520"/>
<path d="M2.57697 6.2125C2.38178 6.2125 2.18647 6.21146 1.99128 6.21295C1.88249 6.21376 1.80641 6.17349 1.80664 6.05589C1.80687 5.94563 1.88284 5.90295 1.98221 5.9025C2.38729 5.90077 2.79236 5.90066 3.19744 5.9025C3.3037 5.90295 3.38081 5.94942 3.37427 6.06851C3.36819 6.17888 3.29279 6.2133 3.19193 6.21284C2.98698 6.21169 2.78192 6.2125 2.57697 6.2125Z" fill="#DAA520"/>
<path d="M3.98839 6.21032C3.94961 6.21032 3.89728 6.22626 3.87479 6.2071C3.82258 6.16259 3.74937 6.10201 3.7481 6.04648C3.74512 5.90846 3.86194 5.90055 3.96854 5.90112C4.08042 5.90169 4.21377 5.88758 4.22386 6.04224C4.22731 6.09524 4.15283 6.16041 4.10165 6.20642C4.08031 6.22569 4.02706 6.20963 3.98828 6.20963C3.98839 6.20986 3.98839 6.21009 3.98839 6.21032Z" fill="#DAA520"/>
</svg>
