<svg width="25" height="26" viewBox="0 0 25 26" fill="none" xmlns="http://www.w3.org/2000/svg">
<path d="M0 22.6987C0 16.2557 0 9.81271 0 3.36969C0.0130491 3.34033 0.0337103 3.31097 0.0369726 3.28052C0.19465 1.90384 1.45715 0.523894 3.36342 0.530419C9.45519 0.552167 15.548 0.538031 21.6398 0.54238C21.9226 0.54238 22.2118 0.559779 22.4858 0.621763C24.0082 0.968652 24.9945 2.23007 24.9956 3.82206C24.9978 8.92102 24.9967 14.02 24.9967 19.1189C24.9967 20.2009 25.0065 21.2818 24.9935 22.3638C24.9771 23.7405 24.1202 24.9149 22.8208 25.3586C22.6076 25.4314 22.3836 25.4738 22.1651 25.5304C15.721 25.5304 9.27576 25.5304 2.83166 25.5304C2.79469 25.5163 2.75881 25.4956 2.71966 25.4891C1.45933 25.2672 0.614397 24.5463 0.171814 23.3534C0.0935188 23.1435 0.0565463 22.9173 0 22.6987ZM23.5178 14.1831C23.5233 14.0743 23.5276 14.0287 23.5276 13.983C23.5276 10.5913 23.5319 7.2007 23.5254 3.80901C23.5232 2.73899 22.7784 2.00932 21.6996 2.00932C15.5665 2.00606 9.43235 2.00606 3.29926 2.00932C2.20965 2.00932 1.47238 2.74442 1.47129 3.83294C1.46694 8.38709 1.46912 12.9412 1.4702 17.4965C1.4702 17.5552 1.48216 17.6128 1.49195 17.702C1.98456 17.2833 2.44671 16.8875 2.91213 16.495C3.78208 15.7609 4.63788 15.0084 5.53066 14.3027C6.14941 13.8134 7.05632 13.8242 7.69899 14.2809C8.06981 14.5441 8.41234 14.8464 8.76358 15.1357C9.30186 15.5793 9.83796 16.0263 10.4393 16.5254C10.4991 16.4341 10.5404 16.3395 10.6079 16.2709C12.7436 14.1276 14.8836 11.9887 17.0204 9.84642C17.388 9.47778 17.8088 9.22223 18.3384 9.18309C19.0724 9.12871 19.6466 9.42776 20.1011 9.98778C21.1722 11.3068 22.2433 12.6259 23.3156 13.9449C23.3699 14.0091 23.4254 14.0733 23.5178 14.1831ZM12.5033 24.0613C15.5622 24.0613 18.62 24.0635 21.679 24.0602C22.7653 24.0591 23.5167 23.3447 23.5243 22.2801C23.5363 20.4173 23.5287 18.5556 23.5243 16.6929C23.5243 16.6048 23.4895 16.4993 23.4341 16.4308C21.9313 14.5713 20.4252 12.714 18.9093 10.8664C18.8147 10.7512 18.62 10.6544 18.4776 10.662C18.3308 10.6696 18.1677 10.7903 18.0535 10.9045C15.7264 13.2251 13.4058 15.5511 11.0831 17.876C10.6416 18.3175 10.3175 18.3327 9.83144 17.9304C8.90386 17.1626 7.97955 16.3927 7.05306 15.625C6.71922 15.3477 6.54088 15.3445 6.21683 15.6196C4.6792 16.9256 3.14267 18.2316 1.61048 19.543C1.53762 19.6061 1.47782 19.729 1.47673 19.8257C1.46585 20.6391 1.45498 21.4525 1.4789 22.2648C1.48651 22.5411 1.54632 22.8379 1.66485 23.0859C1.99652 23.7851 2.60004 24.0624 3.35254 24.0624C6.40169 24.0602 9.45302 24.0613 12.5033 24.0613Z" fill="#848484"/>
<path d="M4.32136 7.15395C4.33332 5.19005 5.9351 3.60132 7.8903 3.61437C9.83788 3.62742 11.4277 5.23029 11.4201 7.17135C11.4125 9.13089 9.80308 10.724 7.84789 10.7055C5.88725 10.6881 4.30939 9.09827 4.32136 7.15395ZM5.79917 7.16373C5.79917 8.30227 6.71914 9.22658 7.85876 9.23311C8.99947 9.23963 9.94989 8.29683 9.94771 7.16156C9.94445 6.03716 9.01252 5.10088 7.8816 5.08566C6.75176 5.07043 5.79808 6.02193 5.79917 7.16373Z" fill="#848484"/>
</svg>
