<svg width="32" height="32" viewBox="0 0 32 32" fill="none" xmlns="http://www.w3.org/2000/svg">
<path d="M25.4982 31.9999C21.0372 31.8282 16.8526 30.6793 13.0099 28.3917C6.41358 24.4543 2.27605 18.7138 0.574767 11.2193C0.222083 9.59502 0.0307648 7.93995 0.0035832 6.27815C-0.0742131 3.47128 1.1132 1.65591 3.72142 0.6133C4.57743 0.231346 5.50086 0.0228838 6.43816 0C7.51502 0.0143103 8.41991 0.394566 9.09961 1.28794C10.0946 2.59222 11.1325 3.86379 12.148 5.15172C13.3641 6.69724 13.2597 8.66389 11.8921 10.0867C11.411 10.5876 10.9483 11.1089 10.459 11.5914C10.3715 11.6706 10.3079 11.7727 10.2753 11.8861C10.2428 11.9995 10.2426 12.1198 10.2747 12.2333C10.4722 13.2425 10.8802 14.1989 11.4724 15.0402C13.4582 17.939 16.0358 20.1326 19.3237 21.441C20.1733 21.7803 20.1835 21.7558 20.8448 21.1261L22.0138 20.0222C22.6373 19.4153 23.4593 19.0536 24.3285 19.0036C25.1978 18.9536 26.056 19.2188 26.745 19.7503C28.2109 20.8706 29.6563 22.0195 31.0893 23.1827C31.373 23.418 31.6014 23.7126 31.7584 24.0458C31.9155 24.3789 31.9974 24.7424 31.9983 25.1105C32.0393 27.3593 31.3268 29.3444 29.5907 30.8592C28.649 31.6769 27.4923 31.9693 26.2598 31.9816C25.9998 32.002 25.7501 31.9999 25.4982 31.9999ZM25.7603 30.5198C26.0346 30.5198 26.309 30.5321 26.5792 30.5198C27.1254 30.5072 27.6613 30.3681 28.1445 30.1134C28.6276 29.8586 29.0449 29.4953 29.3635 29.052C30.0726 28.0671 30.4975 26.9067 30.5919 25.6973C30.6335 25.3859 30.5894 25.0691 30.4642 24.781C30.3391 24.4928 30.1376 24.2442 29.8815 24.0618C28.5753 23.0662 27.2978 22.0379 26.0039 21.028C25.0069 20.2512 23.8911 20.3084 22.9699 21.1711C22.3311 21.7722 21.6862 22.3691 21.0495 22.9722C20.9424 23.0915 20.8036 23.1779 20.6491 23.2213C20.4947 23.2648 20.3311 23.2634 20.1774 23.2175C19.7086 23.0805 19.2193 22.9947 18.7668 22.8086C15.2373 21.4062 12.4571 19.0736 10.3239 15.9601C9.47426 14.7151 8.86826 13.3618 8.76385 11.8244C8.74637 11.6665 8.76491 11.5067 8.8181 11.3569C8.87128 11.2071 8.95772 11.0713 9.07094 10.9597C9.6667 10.3464 10.2502 9.72081 10.8398 9.10342C11.7181 8.18143 11.7774 7.05909 10.9851 6.04919C9.9615 4.76126 8.93787 3.48559 7.93266 2.18744C7.65374 1.82407 7.24246 1.58531 6.78823 1.52303C5.96932 1.37993 5.22412 1.63342 4.48505 1.89101C2.7981 2.47773 1.35068 3.60825 1.45714 6.13914C1.50576 7.76637 1.69273 9.38654 2.01604 10.9822C4.42773 22.1851 14.3242 30.3318 25.7603 30.5198Z" fill="url(#paint0_linear_580_845)"/>
<path d="M25.7601 30.5199C14.324 30.3318 4.42748 22.1852 2.0117 10.9822C1.68839 9.38661 1.50141 7.76644 1.45279 6.13921C1.34633 3.60832 2.79376 2.4778 4.48071 1.89108C5.21978 1.63349 5.97317 1.38 6.78389 1.5231C7.23813 1.58537 7.64938 1.82414 7.92831 2.18751C8.93352 3.48566 9.96535 4.76133 10.9808 6.04926C11.7731 7.05507 11.7137 8.1815 10.8354 9.10349C10.2458 9.71679 9.66235 10.3464 9.06659 10.9598C8.95337 11.0714 8.86694 11.2072 8.81376 11.357C8.76057 11.5067 8.74202 11.6666 8.7595 11.8245C8.86391 13.3618 9.4699 14.7152 10.3195 15.9602C12.4507 19.0737 15.233 21.4145 18.7584 22.8128C19.2108 22.9906 19.7001 23.0765 20.169 23.2217C20.3227 23.2676 20.4863 23.2689 20.6407 23.2255C20.7951 23.1821 20.934 23.0957 21.0411 22.9763C21.6778 22.363 22.3227 21.7763 22.9614 21.1753C23.8827 20.3126 25.0087 20.2553 25.9955 21.0322C27.2894 22.0421 28.5669 23.0765 29.873 24.066C30.1291 24.2483 30.3306 24.497 30.4558 24.7851C30.581 25.0733 30.6251 25.3901 30.5834 25.7014C30.489 26.9108 30.0642 28.0712 29.3551 29.0562C29.0373 29.4977 28.6215 29.8598 28.1403 30.1141C27.659 30.3684 27.1253 30.508 26.581 30.522C26.3087 30.5322 26.0344 30.5199 25.7601 30.5199Z" fill="url(#paint1_linear_580_845)"/>
<defs>
<linearGradient id="paint0_linear_580_845" x1="16" y1="0" x2="16" y2="32" gradientUnits="userSpaceOnUse">
<stop stop-color="#FFD700"/>
<stop offset="1" stop-color="#DAA520"/>
</linearGradient>
<linearGradient id="paint1_linear_580_845" x1="16.023" y1="1.48169" x2="16.023" y2="30.526" gradientUnits="userSpaceOnUse">
<stop stop-color="#FFD700"/>
<stop offset="1" stop-color="#DAA520"/>
</linearGradient>
</defs>
</svg>
