<svg width="22" height="22" viewBox="0 0 22 22" fill="none" xmlns="http://www.w3.org/2000/svg">
<path d="M11.5625 0.0038771C12.149 0.0883927 12.7425 0.143444 13.322 0.262076C15.0625 0.61911 16.6857 1.4063 18.0435 2.55175C18.2273 2.70682 18.2584 2.88671 18.1381 3.03869C18.0179 3.19066 17.8371 3.18756 17.6401 3.05497C17.0357 2.6479 16.4329 2.23773 15.8208 1.84228C15.62 1.72075 15.4026 1.62908 15.1754 1.57013C15.2149 1.62906 15.2529 1.68721 15.2933 1.74692C15.5299 2.12995 15.7844 2.50368 15.9915 2.90067C16.0731 3.08158 16.1104 3.27935 16.1001 3.47755C16.102 3.7868 16.1939 4.08881 16.3647 4.34674C16.4865 4.54291 16.474 4.70806 16.3569 4.90268C16.0523 5.38797 15.8229 5.91656 15.6765 6.47048C15.5496 6.95805 15.5669 7.47193 15.7262 7.9499C15.997 8.80463 16.4421 9.594 17.0334 10.2683C17.1948 10.4497 17.3561 10.4745 17.5602 10.3551C17.8007 10.2148 18.0474 10.0829 18.2917 9.94958C18.3864 9.89841 18.481 9.84801 18.5788 9.80381C19.3546 9.4549 19.872 9.67432 20.1676 10.4768C20.4135 11.1429 20.4314 11.8345 20.3949 12.5308C20.3282 13.8001 20.0846 15.0415 19.796 16.2758C19.7797 16.3326 19.7797 16.3928 19.796 16.4495C19.834 16.3922 19.8736 16.3356 19.9085 16.2766C20.7221 14.9216 21.2055 13.3944 21.3197 11.8182C21.5268 8.94935 20.6804 6.42784 18.8371 4.23276C18.8092 4.20019 18.7805 4.16763 18.7541 4.13429C18.609 3.9513 18.6059 3.75746 18.7456 3.63572C18.8852 3.51399 19.0955 3.5388 19.2514 3.72489C19.4632 3.97689 19.6758 4.22966 19.872 4.49484C20.9729 5.99518 21.6804 7.66533 21.9039 9.5115C22.3437 13.1557 21.2762 16.3038 18.6618 18.8935C17.0093 20.5534 14.8468 21.6104 12.5214 21.895C9.33283 22.3106 6.47945 21.491 3.97673 19.4673C3.88208 19.3897 3.78822 19.3122 3.699 19.23C3.53918 19.0811 3.51514 18.8935 3.63383 18.7547C3.75253 18.6159 3.93794 18.6105 4.11405 18.74C4.63228 19.1215 5.13732 19.5239 5.67417 19.8767C6.28353 20.2619 6.94012 20.5668 7.62764 20.7839C7.66177 20.1085 7.72772 19.4657 7.71685 18.8191C7.7091 18.3872 7.41972 18.0677 7.07216 17.8266C6.83012 17.6484 6.57375 17.4904 6.30567 17.3544C4.88286 16.6821 4.59892 15.6059 4.83864 14.2312C4.89915 13.8885 5.0132 13.5551 5.10862 13.1937C5.05277 13.1658 4.98527 13.1302 4.91622 13.0968C4.04112 12.6719 3.16137 12.2548 2.38092 11.6616C1.66176 11.1188 1.0419 10.4985 0.751747 9.59446C0.733128 9.72705 0.708301 9.85964 0.696664 9.99223C0.521334 11.971 0.843291 13.8629 1.76028 15.6284C2.09775 16.2782 2.54384 16.869 2.9426 17.4893C2.98449 17.5552 3.04112 17.6126 3.08301 17.6785C3.18697 17.8405 3.1668 18.0181 3.03802 18.1243C3.00457 18.1517 2.96592 18.172 2.9244 18.1839C2.88287 18.1959 2.83934 18.1993 2.79646 18.1939C2.75358 18.1886 2.71223 18.1745 2.67494 18.1527C2.63765 18.1309 2.60518 18.1017 2.57952 18.067C2.37471 17.8181 2.17223 17.5668 1.98992 17.3017C0.939487 15.7695 0.283165 14.087 0.0814577 12.2354C0.053529 11.9811 0.0271529 11.7267 0 11.4716V10.3551C0.0333593 10.0729 0.061287 9.78985 0.100853 9.50839C0.403413 7.35518 1.25447 5.44622 2.68504 3.80708C4.39877 1.84539 6.53842 0.621074 9.11096 0.169807C9.51049 0.0992479 9.91545 0.0558268 10.3181 0L11.5625 0.0038771ZM11.1172 21.3662C11.4725 21.3429 11.7727 21.3367 12.0698 21.3034C14.6486 21.0149 16.8268 19.925 18.6044 18.0336C18.6589 17.9778 18.6998 17.9101 18.7239 17.8359C19.2173 16.0525 19.6548 14.2645 19.7564 12.4083C19.7875 11.85 19.7735 11.2902 19.5834 10.7536C19.3972 10.231 19.2607 10.1775 18.758 10.4342C18.4337 10.6001 18.1211 10.7901 17.7937 10.9506C17.3204 11.1832 17.007 11.1258 16.623 10.7629C16.5445 10.6898 16.4705 10.6121 16.4011 10.5303C15.848 9.86041 15.4578 9.10132 15.1598 8.29028C14.8915 7.60356 14.8714 6.84474 15.1032 6.14483C15.2674 5.69 15.4569 5.24475 15.6711 4.81119C15.7013 4.75402 15.7186 4.6909 15.7217 4.62631C15.7248 4.56172 15.7136 4.49724 15.6889 4.43746C15.5873 4.13661 15.5338 3.82104 15.4562 3.50701C15.4213 3.35814 15.4329 3.18058 15.3538 3.06272C14.9209 2.41529 14.4686 1.78025 14.0155 1.14678C13.962 1.09062 13.8913 1.05381 13.8146 1.0421C13.3398 0.938202 12.8658 0.829649 12.3871 0.748235C12.0675 0.694735 11.7401 0.683878 11.405 0.652864C11.4911 1.4546 11.277 2.14468 10.8798 2.79057C10.816 2.89859 10.7308 2.99243 10.6294 3.06631C10.528 3.14018 10.4126 3.19253 10.2902 3.22012C10.1094 3.26432 9.92399 3.28603 9.74013 3.31394C9.55626 3.34186 9.35223 3.36899 9.14122 3.39768C9.27 3.88307 9.0838 4.2188 8.70133 4.44056C8.12872 4.77453 7.6675 5.27002 7.3755 5.86492C7.32106 5.97413 7.24477 6.071 7.15136 6.14956C7.05795 6.22811 6.94941 6.28667 6.83244 6.32161C6.71685 6.35883 6.59971 6.39915 6.48566 6.43327C6.39126 6.45635 6.30578 6.50678 6.23994 6.57823C6.17411 6.64968 6.13086 6.73898 6.11561 6.83491C6.06784 7.10246 6.0028 7.36664 5.92088 7.62579C5.82468 7.88942 5.72073 8.16855 5.54307 8.38023C5.23275 8.74775 4.70831 8.63998 4.51281 8.19957C4.45307 8.06388 4.42437 7.91423 4.37549 7.77234C4.33831 7.63495 4.28493 7.50247 4.21646 7.37767C4.04501 7.11637 3.77347 7.11404 3.5803 7.35441C3.18464 7.84677 3.17301 8.05224 3.51436 8.57872C3.55005 8.633 3.58263 8.68805 3.61909 8.74155C3.88936 9.12707 4.00458 9.60012 3.94182 10.0667C3.91312 10.2721 3.99069 10.3908 4.13111 10.5055C4.66564 10.9428 5.2793 11.2258 5.93174 11.436C6.35766 11.5717 6.7634 11.5988 7.19862 11.3972C7.7153 11.1584 8.27387 11.1855 8.81538 11.3631C9.38947 11.5515 9.88132 11.8849 10.3328 12.2749C10.8154 12.6913 11.2785 13.1278 11.7564 13.5504C11.9957 13.7794 12.3044 13.9226 12.6339 13.9575C13.5648 14.035 14.3809 14.4227 15.1164 14.988C15.7076 15.4454 15.8581 15.9959 15.5043 16.648C15.3142 16.9995 15.0723 17.3205 14.7867 17.6002C14.2941 18.077 13.7394 18.4903 13.2351 18.9571C13.0125 19.1563 12.8302 19.3963 12.6982 19.6642C12.5445 20.027 12.3143 20.3523 12.0233 20.6179C11.7463 20.8614 11.4539 21.0894 11.1172 21.3662ZM5.9876 1.99891L6.0295 1.92913C6.00937 1.93653 5.98969 1.94507 5.97053 1.95471C4.4202 2.82445 3.11538 4.07227 2.17766 5.58191C1.72925 6.29758 1.37549 7.05124 1.30489 7.90803C1.21878 8.95478 1.36928 9.9302 2.20714 10.6722C2.50117 10.9328 2.80063 11.2003 3.1381 11.3957C3.87899 11.826 4.64237 12.2191 5.40342 12.6138C5.88597 12.8642 5.92631 12.9456 5.73391 13.4442C5.51203 14.0164 5.37162 14.6072 5.41584 15.2275C5.45851 15.8067 5.70366 16.2696 6.21879 16.5658C6.47325 16.7116 6.73004 16.8535 6.9876 16.9946C8.01476 17.5568 8.52911 18.3903 8.37473 19.5859C8.3212 19.9976 8.29715 20.4125 8.24827 20.8265C8.23431 20.9513 8.27155 21.0048 8.40343 21.0273C8.90304 21.1149 9.4011 21.2157 9.90071 21.3018C9.97694 21.3103 10.0537 21.2913 10.1172 21.2483C10.5555 20.9382 10.9946 20.628 11.4197 20.3031C11.7044 20.0837 11.9581 19.8263 12.0776 19.4727C12.1961 19.1329 12.4037 18.8311 12.6788 18.5989C13.1141 18.2158 13.5609 17.846 13.9977 17.4676C14.3453 17.1683 14.6827 16.8582 14.9023 16.4449C15.1102 16.0525 15.0978 15.8199 14.8146 15.5796C14.2025 15.0601 13.5066 14.6972 12.6998 14.6181C12.1785 14.5677 11.7293 14.3971 11.3452 14.0451C11.0233 13.7505 10.7083 13.4457 10.3709 13.1697C9.95115 12.8262 9.53222 12.4719 9.07527 12.1858C8.49731 11.8206 7.87511 11.7903 7.22732 12.064C6.97251 12.1753 6.6933 12.2191 6.41662 12.1912C5.38076 12.0481 4.40968 11.6043 3.62375 10.9149C3.37084 10.6963 3.22421 10.4241 3.29713 10.062C3.36695 9.71077 3.26455 9.38201 3.06905 9.08349C2.9713 8.93384 2.87122 8.78497 2.7789 8.63222C2.6931 8.50337 2.63752 8.35682 2.61629 8.2035C2.59507 8.05018 2.60875 7.89404 2.65632 7.74675C2.7688 7.38291 2.97009 7.05277 3.24205 6.78606C3.40202 6.62831 3.61779 6.53998 3.84252 6.54027C4.05861 6.53806 4.27046 6.60034 4.45095 6.71912C4.63144 6.83791 4.77237 7.00781 4.85571 7.20709C4.94881 7.43427 5.01087 7.67231 5.1125 7.97005C5.1831 7.79017 5.24516 7.66456 5.28163 7.53275C5.35921 7.25051 5.4298 6.96517 5.49419 6.67984C5.57876 6.30456 5.78202 6.0293 6.14509 5.88663C6.28178 5.84577 6.41574 5.79631 6.54617 5.73853C6.66471 5.68383 6.76688 5.5991 6.84253 5.49274C7.20017 4.85616 7.64936 4.31107 8.29637 3.95208C8.47946 3.84973 8.55704 3.72799 8.51592 3.50003C8.44687 3.12398 8.60203 2.90377 8.97442 2.79522C9.12698 2.75568 9.28275 2.72973 9.4399 2.71768C10.3096 2.62464 10.4484 2.52074 10.6812 1.719C10.782 1.37706 10.8425 1.02737 10.7176 0.644336C10.2692 0.693184 9.83012 0.752112 9.38869 0.784678C8.94726 0.817244 8.62841 0.971541 8.40731 1.39645C8.19183 1.78346 7.92859 2.1419 7.62375 2.46336C7.31343 2.8084 6.98139 2.81072 6.61522 2.53004C6.39955 2.35403 6.19629 2.17492 5.9876 1.99891ZM7.79598 1.21113L7.75254 1.15918L6.58884 1.61975L7.08923 2.15554L7.79598 1.21113Z" fill="black"/>
<path d="M5.98723 1.9989C6.19592 2.17258 6.39918 2.35402 6.61485 2.5184C6.98335 2.79908 7.31306 2.79676 7.62338 2.45172C7.92822 2.13026 8.19146 1.77182 8.40694 1.3848C8.62804 0.959899 8.95 0.805601 9.38832 0.773035C9.82665 0.740469 10.2689 0.681539 10.7173 0.63269C10.8422 1.01572 10.7817 1.36542 10.6808 1.70736C10.4481 2.50909 10.3069 2.61299 9.43953 2.70604C9.28238 2.71809 9.12661 2.74404 8.97405 2.78358C8.60167 2.89213 8.4465 3.11233 8.51555 3.48839C8.55667 3.71635 8.47909 3.83808 8.296 3.94043C7.64899 4.29943 7.1998 4.84452 6.84216 5.4811C6.76651 5.58746 6.66434 5.67219 6.5458 5.72689C6.41537 5.78467 6.28141 5.83413 6.14472 5.87499C5.78165 6.01765 5.57839 6.29291 5.49382 6.66819C5.42943 6.95353 5.35961 7.23887 5.28126 7.5211C5.24479 7.65292 5.18273 7.77853 5.11213 7.95841C5.0136 7.66144 4.94844 7.42263 4.85535 7.19545C4.772 6.99617 4.63107 6.82626 4.45058 6.70748C4.27009 6.58869 4.05825 6.52642 3.84215 6.52862C3.61742 6.52834 3.40165 6.61666 3.24168 6.77442C2.96972 7.04112 2.76843 7.37127 2.65595 7.7351C2.60838 7.8824 2.5947 8.03853 2.61592 8.19185C2.63715 8.34517 2.69273 8.49173 2.77854 8.62058C2.87086 8.77565 2.97093 8.9222 3.06868 9.07185C3.26418 9.37037 3.36658 9.69912 3.29676 10.0504C3.22384 10.4156 3.37435 10.6877 3.62338 10.9033C4.40931 11.5927 5.38039 12.0364 6.41625 12.1795C6.69293 12.2075 6.97214 12.1637 7.22695 12.0524C7.87474 11.7787 8.49694 11.8089 9.07491 12.1741C9.53185 12.4626 9.95078 12.8146 10.3705 13.1581C10.708 13.4341 11.0229 13.7388 11.3449 14.0335C11.7289 14.3855 12.1781 14.5561 12.6994 14.6065C13.5063 14.684 14.2021 15.0484 14.8142 15.5679C15.0974 15.8083 15.1098 16.0409 14.9019 16.4332C14.6824 16.8465 14.3449 17.1567 13.9973 17.4559C13.5575 17.8343 13.1106 18.2042 12.6785 18.5872C12.4034 18.8194 12.1957 19.1212 12.0772 19.4611C11.9578 19.8146 11.7041 20.0721 11.4194 20.2915C10.9942 20.6179 10.5551 20.9273 10.1168 21.2367C10.0533 21.2797 9.97657 21.2987 9.90034 21.2902C9.40073 21.2041 8.90268 21.1033 8.40306 21.0157C8.27506 20.9932 8.23782 20.9382 8.2479 20.8149C8.29368 20.4031 8.32083 19.9883 8.37436 19.5743C8.52952 18.3779 8.01439 17.5451 6.98723 16.983C6.72967 16.8419 6.47288 16.7 6.21842 16.5542C5.70329 16.258 5.45814 15.7951 5.41547 15.2159C5.37125 14.5956 5.51167 14.0079 5.73354 13.4325C5.92594 12.934 5.8887 12.8526 5.40305 12.6021C4.642 12.2075 3.87862 11.8143 3.13773 11.384C2.80103 11.1886 2.50158 10.9188 2.20677 10.6606C1.36891 9.91855 1.21841 8.94314 1.30452 7.89638C1.37512 7.03882 1.72888 6.28516 2.17729 5.57026C3.11501 4.06063 4.41983 2.81281 5.97017 1.94307C5.98932 1.93343 6.009 1.92489 6.02913 1.91748L5.98723 1.9989Z" fill="black"/>
</svg>
