<svg width="36" height="36" viewBox="0 0 36 36" fill="none" xmlns="http://www.w3.org/2000/svg">
<path d="M33.3524 0.530396C33.3524 0.530396 33.3524 0.55536 33.3773 0.55536C34.8502 0.929825 35.2746 2.30286 34.8752 3.55108C34.2011 5.64808 33.5021 7.74509 32.8031 9.86706C30.2068 17.7059 27.5856 25.5197 24.9643 33.3585C24.8145 33.7829 24.6148 34.2322 24.3402 34.6067C23.2418 36.0546 20.97 35.83 20.1213 34.2073C18.0492 30.188 15.9772 26.1688 13.9051 22.1495C13.7803 21.9248 13.5806 21.7501 13.3809 21.6502C9.43652 19.6031 5.49215 17.5561 1.54779 15.534C0.773894 15.1345 0.349501 14.5104 0.074893 13.7365C0.0499287 13.6616 0.0249643 13.5867 0 13.5118C0 13.2123 0 12.9127 0 12.6131C0.324536 11.6146 0.998573 10.9655 1.99715 10.641C8.91227 8.34423 15.8274 6.02255 22.7425 3.72583C25.9629 2.65236 29.1833 1.60386 32.4037 0.530396C32.7033 0.530396 33.0278 0.530396 33.3524 0.530396ZM32.2789 4.82426C32.229 4.7993 32.204 4.77433 32.1541 4.7244C32.1041 4.7993 32.0792 4.87419 32.0292 4.92412C26.6619 10.2915 21.3195 15.6588 15.9522 21.0012C15.7775 21.1759 15.7775 21.3007 15.9023 21.5004C17.4251 24.4213 18.923 27.3421 20.4208 30.2629C20.8951 31.1866 21.3695 32.1352 21.8688 33.034C21.9686 33.2087 22.2183 33.3835 22.418 33.4084C22.5428 33.4334 22.7175 33.1837 22.8424 33.034C22.9173 32.9341 22.9422 32.7843 22.9922 32.6595C25.8131 24.1966 28.6341 15.7586 31.4551 7.29573C31.7297 6.49687 32.0043 5.64808 32.2789 4.82426ZM30.806 3.25151C30.6312 3.30144 30.5064 3.3264 30.4066 3.35137C21.1947 6.42198 11.9579 9.49259 2.74608 12.5632C2.59629 12.6131 2.42154 12.688 2.29672 12.7879C2.04708 12.9127 1.97218 13.1374 2.14693 13.3621C2.27175 13.5368 2.47147 13.6866 2.64622 13.7865C6.39087 15.7337 10.1605 17.6559 13.9051 19.6031C14.2047 19.7529 14.3545 19.728 14.5792 19.5033C19.8966 14.1859 25.189 8.86848 30.5064 3.55108C30.6063 3.47619 30.6562 3.37633 30.806 3.25151Z" fill="black"/>
</svg>
