<svg width="32" height="29" viewBox="0 0 32 29" fill="none" xmlns="http://www.w3.org/2000/svg">
<path d="M0 9.11981C0.160338 8.60865 0.475079 8.33902 0.867016 8.12557C5.74742 5.47053 10.6239 2.80613 15.4964 0.132364C15.6725 0.0369004 15.8632 -0.00792169 16.0548 0.00114634C16.2464 0.0102144 16.4339 0.0729506 16.6039 0.184796C20.9152 2.54775 25.2285 4.90507 29.5437 7.25678C30.1732 7.6013 30.8042 7.94021 31.4277 8.30158C31.6019 8.39391 31.7498 8.55072 31.8519 8.75131C31.9539 8.95189 32.0053 9.1868 31.9993 9.42501C32.0065 9.65778 31.9596 9.88814 31.8644 10.0877C31.7692 10.2874 31.6298 10.4475 31.4633 10.5484C31.2288 10.7076 31.0476 10.6739 30.9155 10.3612C30.8448 10.2071 30.7442 10.0782 30.6232 9.98654C30.5022 9.89485 30.3647 9.84338 30.2237 9.83694L18.8872 8.002C17.989 7.85783 17.0923 7.70616 16.1941 7.55825C16.0578 7.52742 15.918 7.53208 15.7832 7.57193C15.6484 7.61178 15.5214 7.68598 15.4102 7.78997C15.299 7.89397 15.2058 8.02555 15.1363 8.17665C15.0669 8.32774 15.0227 8.49514 15.0064 8.66857C14.9456 9.3782 15.3479 9.96613 15.9521 10.0635L25.4893 11.6213C26.5285 11.788 27.5544 11.9565 28.5876 12.1137C28.8742 12.1568 29.0093 12.301 29.0093 12.6942C29.0033 17.2541 29.0033 21.8102 29.0093 26.3626C29.0093 27.1415 28.5936 27.7013 28.025 27.7126C27.4564 27.7238 27.0125 27.1509 27.0125 26.3514C27.0125 22.0561 27.0125 17.7596 27.0125 13.4619V12.9975C26.864 13.0705 26.7631 13.123 26.6606 13.1848C23.3292 15.0047 19.9997 16.8272 16.6722 18.6521C16.4674 18.7764 16.2432 18.841 16.016 18.841C15.7888 18.841 15.5645 18.7764 15.3598 18.6521C10.4932 15.9883 5.6242 13.3321 0.752698 10.6833C0.5845 10.5975 0.431409 10.4706 0.302232 10.3099C0.173055 10.1493 0.0703408 9.95798 0 9.74706V9.11981Z" fill="url(#paint0_linear_580_802)"/>
<path d="M25.9816 19.373C25.9816 20.2249 26.0366 21.0862 25.9697 21.9306C25.8287 23.7206 25.0092 25.0257 23.9195 26.0892C22.5745 27.3999 21.023 28.1488 19.3751 28.557C16.5128 29.2797 13.6802 29.1449 10.9039 27.9541C9.41932 27.3156 8.06684 26.3776 7.04395 24.8253C6.35442 23.8234 5.98412 22.5344 6.00472 21.2079C6.01957 19.8691 6.00472 18.5285 6.00472 17.1898C6.00472 16.5082 6.15318 16.3753 6.6431 16.6412C9.29462 18.0885 11.9521 19.5246 14.5962 20.9945C15.039 21.2571 15.5224 21.3932 16.0117 21.3932C16.5011 21.3932 16.9844 21.2571 17.4273 20.9945C20.064 19.5321 22.7095 18.0997 25.3521 16.6561C25.8599 16.379 26.0083 16.5045 26.0083 17.2085V19.3767L25.9816 19.373Z" fill="url(#paint1_linear_580_802)"/>
<defs>
<linearGradient id="paint0_linear_580_802" x1="16" y1="0" x2="16" y2="27.7127" gradientUnits="userSpaceOnUse">
<stop stop-color="#FFD700"/>
<stop offset="1" stop-color="#DAA520"/>
</linearGradient>
<linearGradient id="paint1_linear_580_802" x1="16.0061" y1="16.5133" x2="16.0061" y2="29" gradientUnits="userSpaceOnUse">
<stop stop-color="#FFD700"/>
<stop offset="1" stop-color="#DAA520"/>
</linearGradient>
</defs>
</svg>
