<svg width="29" height="26" viewBox="0 0 29 26" fill="none" xmlns="http://www.w3.org/2000/svg">
<path d="M12.2949 13.2823V16.4054C12.1895 16.5616 12.0215 16.7374 11.791 16.9327C11.5605 17.1241 11.2422 17.2921 10.8359 17.4366C10.4336 17.5773 9.91406 17.6476 9.27734 17.6476C8.75781 17.6476 8.2793 17.5577 7.8418 17.3781C7.4082 17.1945 7.03125 16.9288 6.71094 16.5812C6.39453 16.2296 6.14844 15.8038 5.97266 15.3038C5.80078 14.7999 5.71484 14.2296 5.71484 13.5929V12.9308C5.71484 12.2941 5.78906 11.7257 5.9375 11.2257C6.08984 10.7257 6.3125 10.3019 6.60547 9.95422C6.89844 9.60266 7.25781 9.33704 7.68359 9.15735C8.10938 8.97375 8.59766 8.88196 9.14844 8.88196C9.80078 8.88196 10.3457 8.99524 10.7832 9.2218C11.2246 9.44446 11.5684 9.75305 11.8145 10.1476C12.0645 10.5421 12.2246 10.9913 12.2949 11.4952H11.1641C11.1133 11.1866 11.0117 10.9054 10.8594 10.6515C10.7109 10.3976 10.498 10.1945 10.2207 10.0421C9.94336 9.88586 9.58594 9.80774 9.14844 9.80774C8.75391 9.80774 8.41211 9.88 8.12305 10.0245C7.83398 10.1691 7.5957 10.3761 7.4082 10.6456C7.2207 10.9152 7.08008 11.2413 6.98633 11.6241C6.89648 12.007 6.85156 12.4386 6.85156 12.9191V13.5929C6.85156 14.0851 6.9082 14.5245 7.02148 14.9113C7.13867 15.298 7.30469 15.6281 7.51953 15.9015C7.73438 16.171 7.99023 16.3761 8.28711 16.5167C8.58789 16.6573 8.91992 16.7277 9.2832 16.7277C9.68555 16.7277 10.0117 16.6945 10.2617 16.6281C10.5117 16.5577 10.707 16.4757 10.8477 16.382C10.9883 16.2843 11.0957 16.1925 11.1699 16.1066V14.1964H9.19531V13.2823H12.2949ZM15.3828 8.99915V17.5304H14.252V8.99915H15.3828ZM18.5703 8.99915V17.5304H17.4395V8.99915H18.5703ZM22.1445 12.837V13.7628H18.3242V12.837H22.1445ZM22.7246 8.99915V9.92493H18.3242V8.99915H22.7246Z" fill="#848484"/>
<rect x="0.75" y="1.2804" width="27.5" height="23.5" rx="2.25" stroke="#848484" stroke-width="1.5"/>
</svg>
